<?xml version="1.0" standalone="no"?>
<!DOCTYPE svg PUBLIC "-//W3C//DTD SVG 20010904//EN"
 "http://www.w3.org/TR/2001/REC-SVG-20010904/DTD/svg10.dtd">
<svg version="1.0" xmlns="http://www.w3.org/2000/svg"
 width="512.000000pt" height="512.000000pt" viewBox="0 0 512.000000 512.000000"
 preserveAspectRatio="xMidYMid meet">

<g transform="translate(0.000000,512.000000) scale(0.100000,-0.100000)"
fill="#000000" stroke="none">
<path d="M1240 4224 c-307 -28 -573 -111 -787 -246 l-63 -40 2 -1460 3 -1460
33 -29 c44 -40 85 -38 191 10 191 85 400 139 641 166 171 19 267 19 466 0 312
-30 541 -99 747 -227 43 -26 82 -48 87 -48 5 0 55 24 112 54 234 124 459 191
743 221 178 19 275 19 466 0 260 -26 445 -73 634 -160 84 -39 123 -43 162 -18
56 37 53 -36 53 1517 l0 1435 -92 57 c-279 172 -612 243 -1083 231 -400 -11
-682 -85 -927 -243 l-68 -44 -67 44 c-166 107 -357 176 -598 217 -93 16 -175
21 -365 24 -135 1 -265 1 -290 -1z m2688 -410 c144 -16 290 -43 357 -66 l40
-13 3 -1129 c2 -949 0 -1127 -12 -1123 -36 14 -233 58 -331 73 -156 26 -526
26 -680 1 -249 -41 -448 -107 -652 -218 l-93 -50 0 1124 0 1124 48 26 c163 89
308 150 455 191 239 69 583 92 865 60z"/>
</g>
</svg>
