<?xml version="1.0" standalone="no"?>
<!DOCTYPE svg PUBLIC "-//W3C//DTD SVG 20010904//EN"
 "http://www.w3.org/TR/2001/REC-SVG-20010904/DTD/svg10.dtd">
<svg version="1.0" xmlns="http://www.w3.org/2000/svg"
 width="312.000000pt" height="312.000000pt" viewBox="0 0 312.000000 312.000000"
 preserveAspectRatio="xMidYMid meet">
<metadata>
Created by potrace 1.15, written by Peter Selinger 2001-2017
</metadata>
<g transform="translate(0.000000,312.000000) scale(0.100000,-0.100000)"
fill="#000000" stroke="none">
<path d="M585 2684 c-55 -7 -138 -25 -185 -40 -95 -29 -233 -94 -267 -126
l-23 -21 0 -947 c0 -943 0 -947 21 -974 28 -35 49 -33 168 14 166 67 288 91
491 97 197 6 333 -10 475 -54 81 -26 198 -80 248 -115 l27 -19 53 29 c86 50
224 102 336 129 85 20 141 26 286 30 255 7 414 -21 617 -109 74 -31 92 -29
122 14 14 20 16 129 16 964 l0 942 -31 26 c-44 37 -180 100 -271 125 -167 47
-429 64 -623 40 -174 -21 -342 -76 -457 -150 l-48 -31 -48 31 c-165 106 -399
161 -672 160 -74 -1 -180 -7 -235 -15z m1860 -254 c120 -13 242 -40 255 -55
11 -13 10 -1468 0 -1478 -3 -3 -52 6 -110 20 -96 23 -125 26 -330 27 -205 1
-233 -1 -320 -23 -119 -30 -236 -72 -320 -117 -35 -19 -68 -34 -72 -34 -4 0
-8 333 -8 740 l0 740 83 41 c252 127 519 172 822 139z"/>
</g>
</svg>
